<?xml version="1.0" encoding="UTF-8"?>
<svg width="232px" height="45px" viewBox="0 0 232 45" version="1.1" xmlns="http://www.w3.org/2000/svg" xmlns:xlink="http://www.w3.org/1999/xlink">
    <!-- Generator: Sketch 49.3 (51167) - http://www.bohemiancoding.com/sketch -->
    <title>LS-negro</title>
    <desc>Created with Sketch.</desc>
    <defs></defs>
    <g id="Ladera-sur-" stroke="none" stroke-width="1" fill="none" fill-rule="evenodd">
        <g id="LS-negro" fill="#353535">
            <polygon id="Fill-1" points="0 1 0 44 18 44 18 37.8585271 6.79635654 37.8585271 6.79635654 1"></polygon>
            <g id="Group-20" transform="translate(22.000000, 0.000000)">
                <path d="M31.5110917,7.22915217 L31.5110917,38.2400217 L35.3559806,38.2400217 C37.5206843,38.2400217 38.8198972,37.1228478 38.8198972,34.0217609 L38.8198972,11.4513261 C38.8198972,8.34632609 37.5206843,7.22915217 35.3559806,7.22915217 L31.5110917,7.22915217 Z M24.6985269,1.02893478 L35.4732028,1.02893478 C42.2916287,1.02893478 45.632462,4.80893478 45.632462,11.7565435 L45.632462,33.7126304 C45.632462,40.6582826 42.2916287,44.4402391 35.4732028,44.4402391 L24.6985269,44.4402391 L24.6985269,1.02893478 Z" id="Fill-2"></path>
                <polygon id="Fill-4" points="56.7738481 19.3255435 66.1301352 19.3255435 66.1301352 25.5238043 56.7738481 25.5238043 56.7738481 38.2392391 68.5468667 38.2392391 68.5468667 44.4394565 49.9651907 44.4394565 49.9651907 1.02815217 68.5468667 1.02815217 68.5468667 7.22836957 56.7738481 7.22836957"></polygon>
                <path d="M79.5667324,7.22915217 L79.5667324,20.5628478 L82.2315843,20.5628478 C84.7694454,20.5628478 86.3167787,19.4456739 86.3167787,15.9767609 L86.3167787,11.6978478 C86.3167787,8.59480435 85.2637324,7.22915217 82.8489546,7.22915217 L79.5667324,7.22915217 Z M86.9986213,44.4402391 C86.6293713,43.3250217 86.3753898,42.6421957 86.3753898,39.1087174 L86.3753898,32.282413 C86.3753898,28.2558913 85.0136583,26.7689348 81.9189917,26.7689348 L79.5667324,26.7689348 L79.5667324,44.4402391 L72.7561213,44.4402391 L72.7561213,1.02893478 L83.0365102,1.02893478 C90.0913343,1.02893478 93.1293435,4.3158913 93.1293435,11.0150217 L93.1293435,14.4252391 C93.1293435,18.8900217 91.7050935,21.8013261 88.6709917,23.2354565 C92.0762972,24.6558913 93.191862,27.9428478 93.191862,32.4721957 L93.191862,39.1713261 C93.191862,41.2785 93.2543806,42.8280652 93.9362231,44.4402391 L86.9986213,44.4402391 Z" id="Fill-6"></path>
                <path d="M141.614994,0.532369565 C148.240004,0.532369565 151.647263,4.50215217 151.647263,11.4517174 L151.647263,12.8115 L145.205902,12.8115 L145.205902,11.0134565 C145.205902,7.91236957 143.969207,6.73258696 141.80255,6.73258696 C139.633939,6.73258696 138.393337,7.91236957 138.393337,11.0134565 C138.393337,19.9449783 151.709781,21.6197609 151.709781,34.0221522 C151.709781,40.9697609 148.240004,44.9356304 141.552476,44.9356304 C134.862994,44.9356304 131.39517,40.9697609 131.39517,34.0221522 L131.39517,31.3573696 L137.834578,31.3573696 L137.834578,34.4545435 C137.834578,37.5595435 139.198263,38.6747609 141.366874,38.6747609 C143.531578,38.6747609 144.901124,37.5595435 144.901124,34.4545435 C144.901124,25.5230217 131.580772,23.8541087 131.580772,11.4517174 C131.580772,4.50215217 134.988031,0.532369565 141.614994,0.532369565" id="Fill-8"></path>
                <path d="M162.109737,1.02913043 L162.109737,34.518913 C162.109737,37.6219565 163.473422,38.7352174 165.64008,38.7352174 C167.808691,38.7352174 169.170422,37.6219565 169.170422,34.518913 L169.170422,1.02913043 L175.60983,1.02913043 L175.60983,34.0865217 C175.60983,41.0302174 172.142006,45 165.456431,45 C158.764996,45 155.299126,41.0302174 155.299126,34.0865217 L155.299126,1.02913043 L162.109737,1.02913043 Z" id="Fill-10"></path>
                <path d="M187.061464,7.22915217 L187.061464,20.5628478 L189.732177,20.5628478 C192.268084,20.5628478 193.813464,19.4456739 193.813464,15.9767609 L193.813464,11.6978478 C193.813464,8.59480435 192.760418,7.22915217 190.349547,7.22915217 L187.061464,7.22915217 Z M194.501168,44.4402391 C194.126056,43.3250217 193.872075,42.6421957 193.872075,39.1087174 L193.872075,32.282413 C193.872075,28.2558913 192.516205,26.7689348 189.417631,26.7689348 L187.061464,26.7689348 L187.061464,44.4402391 L180.252806,44.4402391 L180.252806,1.02893478 L190.527334,1.02893478 C197.591927,1.02893478 200.626029,4.3158913 200.626029,11.0150217 L200.626029,14.4252391 C200.626029,18.8900217 199.203732,21.8013261 196.167677,23.2354565 C199.572982,24.6558913 200.690501,27.9428478 200.690501,32.4721957 L200.690501,39.1713261 C200.690501,41.2785 200.751066,42.8280652 201.430955,44.4402391 L194.501168,44.4402391 Z" id="Fill-12"></path>
                <polygon id="Fill-14" points="21.5442722 44.4987391 6.87781852 1.14613043 6.80553148 1.14613043 6.80553148 1.0893913 0.01055 1.0893913 0.01055 44.4987391 6.80553148 44.4987391 6.80553148 20.7211304 14.6711426 44.4987391"></polygon>
                <polygon id="Fill-16" points="118.826799 44.4987391 104.160345 1.14613043 104.088058 1.14613043 104.088058 1.0893913 97.2891694 1.0893913 97.2891694 44.4987391 104.088058 44.4987391 104.088058 20.7211304 111.947808 44.4987391"></polygon>
                <path d="M207.024018,41.6537609 C207.430388,41.6537609 207.709768,41.4659348 207.709768,41.1372391 L207.709768,41.1235435 C207.709768,40.8163696 207.459694,40.6207174 207.045508,40.6207174 L206.195647,40.6207174 L206.195647,41.6537609 L207.024018,41.6537609 Z M205.765832,40.2313696 L207.063092,40.2313696 C207.430388,40.2313696 207.731258,40.3487609 207.918814,40.536587 C208.061434,40.6696304 208.153258,40.8652826 208.153258,41.1000652 L208.153258,41.1157174 C208.153258,41.5833261 207.842619,41.8650652 207.403036,41.9668043 L208.30174,43.1309348 L207.772286,43.1309348 L206.936101,42.0352826 L206.195647,42.0352826 L206.195647,43.1309348 L205.765832,43.1309348 L205.765832,40.2313696 Z M209.440749,41.7633261 L209.440749,41.7476739 C209.440749,40.3331087 208.342768,39.1748478 206.883351,39.1748478 C205.414166,39.1748478 204.306416,40.3487609 204.306416,41.7633261 L204.306416,41.7770217 C204.306416,43.1935435 205.408305,44.3498478 206.865768,44.3498478 C208.332999,44.3498478 209.440749,43.1759348 209.440749,41.7633261 Z M204.050481,41.7770217 L204.050481,41.7633261 C204.050481,40.2255 205.296944,38.9322391 206.883351,38.9322391 C208.465851,38.9322391 209.698638,40.2078913 209.698638,41.7476739 L209.698638,41.7633261 C209.698638,43.3011522 208.448268,44.5924565 206.865768,44.5924565 C205.27936,44.5924565 204.050481,43.3187609 204.050481,41.7770217 Z" id="Fill-18"></path>
            </g>
        </g>
    </g>
</svg>